<svg width="18" height="17" viewBox="0 0 18 17" fill="none" xmlns="http://www.w3.org/2000/svg">
<path fill-rule="evenodd" clip-rule="evenodd" d="M13.5427 5.40557L3.53252 16.337C3.01055 16.907 2.09446 16.9909 1.48769 16.5244C0.880918 16.0579 0.812101 15.2166 1.33408 14.6466L11.3443 3.71523L2.91552 4.48793C2.11707 4.56207 1.42127 4.02708 1.36121 3.29285C1.30021 2.55965 1.89877 1.906 2.69831 1.8327L14.2659 0.772254C14.7567 0.727264 15.1893 0.92784 15.478 1.24666C15.8708 1.45192 16.1615 1.8074 16.1982 2.25621L17.0672 12.8789C17.1282 13.6121 16.5297 14.2657 15.7301 14.339C14.9316 14.4132 14.2358 13.8782 14.1758 13.1439L13.5427 5.40557Z" fill="#2D2D2D"/>
</svg>
