<svg width="111" height="76" viewBox="0 0 111 76" fill="none" xmlns="http://www.w3.org/2000/svg">
<path d="M1.07152 64.0958C0.532196 64.4741 0.401955 65.2183 0.780621 65.758L6.95134 74.5524C7.33 75.0921 8.07418 75.2229 8.61351 74.8445C9.15283 74.4662 9.28308 73.722 8.90441 73.1823L3.41933 65.3651L11.2316 59.8846C11.7709 59.5063 11.9012 58.7621 11.5225 58.2224C11.1439 57.6827 10.3997 57.5519 9.86035 57.9303L1.07152 64.0958ZM1.55146 66.2483C21.7462 69.7972 39.0651 70.2551 53.0719 68.3867C67.0624 66.5204 77.8323 62.321 84.8356 56.476C91.879 50.5974 95.1042 43.0453 93.8685 34.7059C92.6438 26.4403 87.0688 17.614 77.0003 8.99855L75.4496 10.8117C85.2815 19.2247 90.3997 27.5749 91.5079 35.0542C92.6052 42.4595 89.803 49.2204 83.3058 54.643C76.7684 60.0993 66.4845 64.1894 52.7548 66.0209C39.0414 67.8502 21.9738 67.4142 1.96286 63.8976L1.55146 66.2483ZM77.0003 8.99855C71.9943 4.71505 68.155 2.21877 65.3334 1.12783C63.9265 0.58389 62.6596 0.344235 61.5771 0.503054C60.4259 0.671969 59.5373 1.28945 59.0345 2.27221C58.5671 3.18574 58.4935 4.29385 58.6258 5.40828C58.7602 6.54136 59.1215 7.80253 59.6574 9.11912C60.7301 11.7546 62.5577 14.7469 64.9438 17.604C69.6947 23.2927 76.8596 28.6754 85.0673 29.4674C93.3951 30.271 102.419 26.3207 110.717 14.1139L108.743 12.7711C100.784 24.4801 92.5163 27.7885 85.2948 27.0917C77.9531 26.3832 71.3112 21.5064 66.7749 16.0747C64.5174 13.3716 62.8314 10.5884 61.8676 8.22052C61.3852 7.03541 61.0975 5.98788 60.9955 5.12868C60.8914 4.25084 60.9941 3.68308 61.1591 3.36058C61.2887 3.10731 61.4885 2.92859 61.9251 2.86453C62.4305 2.79038 63.251 2.88099 64.4742 3.35395C66.9129 4.29683 70.5053 6.58094 75.4496 10.8117L77.0003 8.99855Z" fill="#EBFE4A"/>
</svg>
